<svg width="1001" height="959" viewBox="0 0 1001 959" fill="none" xmlns="http://www.w3.org/2000/svg">
<path d="M686.6 935.875C686.6 949.623 700.495 958.976 712.932 953.121C882.779 873.163 1000.35 700.44 1000.35 500.252C1000.35 223.971 776.412 0 500.174 0C223.935 0 0 223.971 0 500.252C0 703.766 121.508 878.896 295.925 957.03C310.967 963.768 327.384 952.36 327.384 935.875C327.384 878.656 354.132 827.685 395.805 794.789C294.77 761.967 223.765 684.371 223.765 593.874C223.765 563.534 231.746 534.644 246.164 508.405C252.529 496.821 258.343 484.88 263.872 472.828C239.877 477.923 215.866 472.593 199.394 456.118C170.888 427.607 175.753 376.516 210.261 342.002C244.768 307.489 295.852 302.623 324.358 331.134C335.738 342.516 341.799 357.495 342.78 373.582C353.055 366.658 364.078 360.4 375.74 354.894V313.855C375.74 308.466 379.523 303.817 384.799 302.723L416.77 296.091C420.68 295.28 423.878 292.476 425.194 288.705L483.608 121.316C485.201 116.752 489.507 113.694 494.341 113.694H512.736C517.57 113.694 521.875 116.752 523.468 121.316L581.882 288.705C583.198 292.476 586.396 295.28 590.307 296.091L622.277 302.723C627.553 303.817 631.336 308.466 631.336 313.855V355.918C631.336 356.685 631.26 357.437 631.112 358.166C640.403 362.884 649.257 368.088 657.614 373.733C658.566 357.589 664.63 342.551 676.045 331.134C704.552 302.623 755.635 307.489 790.143 342.002C824.651 376.516 829.516 427.607 801.009 456.118C785.158 471.971 762.328 477.505 739.248 473.36C743.309 480.244 747.524 487.03 751.951 493.658C771.989 523.653 783.313 557.735 783.313 593.874C783.313 682.921 714.565 759.477 616.105 793.177C658.962 826.007 686.6 877.713 686.6 935.875Z" fill="black"/>
<path d="M313.748 935.875C313.748 949.623 299.853 958.976 287.416 953.121C117.569 873.163 0 700.44 0 500.252C0 223.971 223.935 0 500.174 0C776.412 0 1000.35 223.971 1000.35 500.252C1000.35 703.766 878.839 878.896 704.422 957.03C689.38 963.768 672.964 952.36 672.964 935.875C672.964 878.656 646.215 827.685 604.542 794.789C705.578 761.967 776.583 684.371 776.583 593.874C776.583 563.534 768.602 534.644 754.184 508.405C747.819 496.821 742.005 484.88 736.475 472.828C760.47 477.923 784.481 472.593 800.953 456.118C829.46 427.607 824.595 376.516 790.087 342.002C755.579 307.489 704.496 302.623 675.989 331.134C664.61 342.516 658.548 357.495 657.567 373.582C647.293 366.658 636.27 360.4 624.607 354.894V313.855C624.607 308.466 620.824 303.817 615.548 302.723L583.578 296.091C579.667 295.28 576.469 292.476 575.153 288.705L516.739 121.316C515.146 116.752 510.841 113.694 506.007 113.694H487.612C482.778 113.694 478.472 116.752 476.879 121.316L418.465 288.705C417.149 292.476 413.951 295.28 410.041 296.091L378.071 302.723C372.794 303.817 369.011 308.466 369.011 313.855V355.918C369.011 356.685 369.088 357.437 369.236 358.166C359.944 362.884 351.091 368.088 342.734 373.733C341.782 357.589 335.718 342.551 324.302 331.134C295.796 302.623 244.713 307.489 210.205 342.002C175.697 376.516 170.832 427.607 199.339 456.118C215.189 471.971 238.02 477.505 261.1 473.36C257.039 480.244 252.824 487.03 248.396 493.658C228.359 523.653 217.035 557.735 217.035 593.874C217.035 682.921 285.783 759.477 384.242 793.177C341.385 826.007 313.748 877.713 313.748 935.875Z" fill="black"/>
</svg>
