<svg width="1933" height="338" viewBox="0 0 1933 338" fill="none" xmlns="http://www.w3.org/2000/svg">
<path d="M242.285 329.85C242.285 334.695 247.189 337.992 251.577 335.928C311.513 307.747 353 246.87 353 176.314C353 78.9385 273.978 0 176.5 0C79.0217 0 0 78.9385 0 176.314C0 248.043 42.8776 309.767 104.425 337.306C109.733 339.681 115.526 335.66 115.526 329.85C115.526 309.683 124.965 291.718 139.671 280.124C104.018 268.555 78.9616 241.207 78.9616 209.311C78.9616 198.618 81.7779 188.436 86.8656 179.188C89.1117 175.105 91.1633 170.896 93.1145 166.649C84.6472 168.444 76.1744 166.566 70.3617 160.759C60.3024 150.71 62.0192 132.703 74.1962 120.539C86.3732 108.375 104.399 106.66 114.459 116.708C118.474 120.72 120.613 125.999 120.959 131.669C124.585 129.229 128.475 127.023 132.59 125.082V110.618C132.59 108.719 133.925 107.081 135.787 106.695L147.069 104.357C148.449 104.072 149.577 103.083 150.041 101.754L170.654 42.7581C171.216 41.1491 172.736 40.0714 174.442 40.0714H180.933C182.639 40.0714 184.158 41.1491 184.72 42.7581L205.333 101.754C205.797 103.083 206.926 104.072 208.306 104.357L219.587 106.695C221.449 107.081 222.784 108.719 222.784 110.618V125.444C222.784 125.714 222.757 125.979 222.705 126.236C225.984 127.898 229.108 129.733 232.057 131.722C232.393 126.032 234.533 120.732 238.561 116.708C248.62 106.66 266.646 108.375 278.823 120.539C291 132.703 292.717 150.71 282.658 160.759C277.065 166.346 269.008 168.297 260.864 166.836C262.297 169.262 263.784 171.654 265.347 173.99C272.417 184.562 276.413 196.574 276.413 209.311C276.413 240.696 252.154 267.678 217.41 279.555C232.533 291.126 242.285 309.35 242.285 329.85Z" fill="black"/>
<path d="M110.715 329.85C110.715 334.695 105.811 337.992 101.423 335.928C41.4874 307.747 0 246.87 0 176.314C0 78.9385 79.0217 0 176.5 0C273.978 0 353 78.9385 353 176.314C353 248.043 310.122 309.767 248.575 337.306C243.267 339.681 237.474 335.66 237.474 329.85C237.474 309.683 228.035 291.718 213.329 280.124C248.982 268.555 274.038 241.207 274.038 209.311C274.038 198.618 271.222 188.436 266.134 179.188C263.888 175.105 261.837 170.896 259.885 166.649C268.353 168.444 276.826 166.566 282.638 160.759C292.698 150.71 290.981 132.703 278.804 120.539C266.627 108.375 248.601 106.66 238.541 116.708C234.526 120.72 232.387 125.999 232.041 131.669C228.415 129.229 224.525 127.023 220.41 125.082V110.618C220.41 108.719 219.075 107.081 217.213 106.695L205.931 104.357C204.551 104.072 203.423 103.083 202.959 101.754L182.346 42.7581C181.784 41.1491 180.264 40.0714 178.558 40.0714H172.067C170.361 40.0714 168.842 41.1491 168.28 42.7581L147.667 101.754C147.202 103.083 146.074 104.072 144.694 104.357L133.413 106.695C131.551 107.081 130.216 108.719 130.216 110.618V125.444C130.216 125.714 130.243 125.979 130.295 126.236C127.016 127.898 123.892 129.733 120.943 131.722C120.607 126.032 118.467 120.732 114.439 116.708C104.38 106.66 86.3536 108.375 74.1766 120.539C61.9995 132.703 60.2828 150.71 70.3421 160.759C75.9354 166.346 83.9918 168.297 92.1363 166.836C90.7032 169.262 89.2158 171.654 87.6534 173.99C80.5826 184.562 76.5867 196.574 76.5867 209.311C76.5867 240.696 100.846 267.678 135.59 279.555C120.467 291.126 110.715 309.35 110.715 329.85Z" fill="black"/>
<path d="M405 283.131V57.4481H501.407C517.098 57.4481 530.318 59.9198 541.066 64.8634C551.813 69.592 559.982 76.3625 565.57 85.1749C571.374 93.7723 574.276 103.982 574.276 115.803C574.276 127.195 571.804 136.76 566.86 144.497C561.916 152.235 555.36 158.146 547.192 162.23C539.239 166.313 530.425 168.785 520.753 169.645L525.911 165.776C536.444 166.206 545.687 169 553.64 174.158C561.594 179.317 567.827 186.087 572.341 194.47C577.07 202.638 579.435 211.665 579.435 221.552C579.435 233.803 576.533 244.55 570.729 253.792C564.926 263.035 556.435 270.235 545.257 275.393C534.08 280.552 520.538 283.131 504.631 283.131H405ZM453.365 243.798H496.57C507.318 243.798 515.594 241.434 521.397 236.705C527.416 231.761 530.425 224.669 530.425 215.426C530.425 206.184 527.309 198.984 521.075 193.825C515.056 188.667 506.673 186.087 495.925 186.087H453.365V243.798ZM453.365 150.301H493.024C503.341 150.301 511.187 147.936 516.561 143.208C522.15 138.479 524.944 131.816 524.944 123.219C524.944 114.621 522.15 107.958 516.561 103.23C511.187 98.286 503.234 95.8142 492.701 95.8142H453.365V150.301Z" fill="black"/>
<path d="M674.048 287C657.282 287 642.557 283.561 629.875 276.683C617.193 269.59 607.197 259.811 599.889 247.344C592.796 234.663 589.249 220.155 589.249 203.82C589.249 187.055 592.796 172.117 599.889 159.005C606.983 145.894 616.87 135.577 629.553 128.055C642.235 120.532 656.959 116.77 673.726 116.77C690.062 116.77 704.357 120.317 716.609 127.41C728.861 134.503 738.427 144.175 745.305 156.426C752.399 168.463 755.945 182.434 755.945 198.339C755.945 200.488 755.838 202.96 755.623 205.754C755.623 208.333 755.408 211.02 754.978 213.814H623.749V185.765H706.614C706.184 176.738 702.852 169.537 696.618 164.164C690.599 158.576 683.076 155.781 674.048 155.781C667.17 155.781 660.936 157.393 655.347 160.617C649.758 163.842 645.244 168.678 641.805 175.126C638.581 181.574 636.969 189.741 636.969 199.628V209.301C636.969 216.823 638.366 223.486 641.16 229.29C644.169 235.093 648.361 239.607 653.735 242.831C659.324 246.055 665.88 247.667 673.403 247.667C680.497 247.667 686.3 246.27 690.814 243.475C695.543 240.466 699.198 236.705 701.777 232.191H751.109C748.1 242.508 742.941 251.858 735.632 260.24C728.324 268.408 719.403 274.964 708.871 279.907C698.338 284.636 686.73 287 674.048 287Z" fill="black"/>
<path d="M827.623 287C814.081 287 802.796 284.851 793.768 280.552C784.955 276.253 778.399 270.45 774.1 263.142C770.016 255.619 767.974 247.344 767.974 238.317C767.974 228.645 770.338 220.155 775.067 212.847C780.011 205.324 787.642 199.413 797.96 195.115C808.277 190.601 821.282 188.344 836.974 188.344H876.31C876.31 181.036 875.343 175.018 873.408 170.29C871.689 165.561 868.787 162.015 864.703 159.65C860.619 157.286 855.03 156.104 847.936 156.104C840.413 156.104 834.072 157.608 828.913 160.617C823.754 163.627 820.53 168.355 819.24 174.803H772.81C773.885 163.197 777.646 153.095 784.095 144.497C790.759 135.9 799.572 129.129 810.534 124.186C821.497 119.242 834.072 116.77 848.259 116.77C863.735 116.77 877.17 119.35 888.563 124.508C899.955 129.452 908.768 136.76 915.002 146.432C921.45 156.104 924.675 168.14 924.675 182.541V283.131H884.371L878.567 259.596C876.203 263.679 873.408 267.441 870.184 270.88C866.96 274.104 863.198 277.005 858.899 279.585C854.6 281.949 849.871 283.776 844.712 285.066C839.553 286.355 833.857 287 827.623 287ZM839.553 250.246C844.712 250.246 849.226 249.386 853.095 247.667C856.964 245.947 860.296 243.583 863.091 240.574C865.885 237.565 868.142 234.126 869.862 230.257C871.796 226.173 873.193 221.767 874.053 217.038V216.716H842.777C837.404 216.716 832.89 217.468 829.235 218.973C825.796 220.262 823.217 222.197 821.497 224.776C819.777 227.355 818.918 230.364 818.918 233.803C818.918 237.457 819.777 240.574 821.497 243.153C823.432 245.517 825.904 247.344 828.913 248.634C832.137 249.709 835.684 250.246 839.553 250.246Z" fill="black"/>
<path d="M945.522 283.131V120.639H988.405L992.919 150.301C997.218 143.423 1002.27 137.512 1008.07 132.568C1013.88 127.625 1020.54 123.756 1028.06 120.962C1035.8 118.168 1044.08 116.77 1052.89 116.77V168.033H1036.77C1030.32 168.033 1024.41 168.785 1019.04 170.29C1013.88 171.579 1009.36 173.836 1005.49 177.06C1001.84 180.284 998.938 184.69 996.788 190.279C994.854 195.652 993.886 202.423 993.886 210.59V283.131H945.522Z" fill="black"/>
<path d="M1203.76 283.131V57.4481H1252.13V283.131H1203.76ZM1062.22 283.131V57.4481H1110.58V283.131H1062.22ZM1104.45 187.377V148.366H1211.5V187.377H1104.45Z" fill="black"/>
<path d="M1330.69 287C1317.15 287 1305.86 284.851 1296.84 280.552C1288.02 276.253 1281.47 270.45 1277.17 263.142C1273.08 255.619 1271.04 247.344 1271.04 238.317C1271.04 228.645 1273.41 220.155 1278.13 212.847C1283.08 205.324 1290.71 199.413 1301.03 195.115C1311.34 190.601 1324.35 188.344 1340.04 188.344H1379.38C1379.38 181.036 1378.41 175.018 1376.48 170.29C1374.76 165.561 1371.85 162.015 1367.77 159.65C1363.69 157.286 1358.1 156.104 1351 156.104C1343.48 156.104 1337.14 157.608 1331.98 160.617C1326.82 163.627 1323.6 168.355 1322.31 174.803H1275.88C1276.95 163.197 1280.71 153.095 1287.16 144.497C1293.83 135.9 1302.64 129.129 1313.6 124.186C1324.56 119.242 1337.14 116.77 1351.33 116.77C1366.8 116.77 1380.24 119.35 1391.63 124.508C1403.02 129.452 1411.84 136.76 1418.07 146.432C1424.52 156.104 1427.74 168.14 1427.74 182.541V283.131H1387.44L1381.63 259.596C1379.27 263.679 1376.48 267.441 1373.25 270.88C1370.03 274.104 1366.27 277.005 1361.97 279.585C1357.67 281.949 1352.94 283.776 1347.78 285.066C1342.62 286.355 1336.92 287 1330.69 287ZM1342.62 250.246C1347.78 250.246 1352.29 249.386 1356.16 247.667C1360.03 245.947 1363.36 243.583 1366.16 240.574C1368.95 237.565 1371.21 234.126 1372.93 230.257C1374.86 226.173 1376.26 221.767 1377.12 217.038V216.716H1345.84C1340.47 216.716 1335.96 217.468 1332.3 218.973C1328.86 220.262 1326.28 222.197 1324.56 224.776C1322.84 227.355 1321.98 230.364 1321.98 233.803C1321.98 237.457 1322.84 240.574 1324.56 243.153C1326.5 245.517 1328.97 247.344 1331.98 248.634C1335.2 249.709 1338.75 250.246 1342.62 250.246Z" fill="black"/>
<path d="M1528.87 287C1512.11 287 1497.28 283.346 1484.38 276.038C1471.7 268.73 1461.7 258.736 1454.39 246.055C1447.3 233.373 1443.75 218.865 1443.75 202.53C1443.75 185.765 1447.3 171.042 1454.39 158.361C1461.7 145.464 1471.7 135.362 1484.38 128.055C1497.28 120.532 1512.11 116.77 1528.87 116.77C1550.15 116.77 1568 122.359 1582.4 133.536C1597.01 144.712 1606.26 160.295 1610.13 180.284H1558.86C1556.93 173.406 1553.27 168.033 1547.9 164.164C1542.52 160.295 1536.08 158.361 1528.55 158.361C1521.46 158.361 1515.22 160.188 1509.85 163.842C1504.69 167.281 1500.61 172.332 1497.6 178.995C1494.59 185.443 1493.08 193.073 1493.08 201.885C1493.08 208.548 1493.94 214.566 1495.66 219.94C1497.38 225.313 1499.75 229.934 1502.76 233.803C1505.98 237.672 1509.74 240.681 1514.04 242.831C1518.34 244.765 1523.18 245.732 1528.55 245.732C1533.71 245.732 1538.22 244.872 1542.09 243.153C1546.18 241.434 1549.62 238.962 1552.41 235.738C1555.42 232.514 1557.57 228.537 1558.86 223.809H1610.13C1606.26 243.153 1597.01 258.521 1582.4 269.913C1567.78 281.304 1549.94 287 1528.87 287Z" fill="black"/>
<path d="M1736.58 283.131L1669.51 194.148L1729.16 120.639H1786.23L1705.95 214.781V176.093L1796.55 283.131H1736.58ZM1628.24 283.131V51H1676.61V283.131H1628.24Z" fill="black"/>
<path d="M1862.7 287C1847.44 287 1834.22 284.636 1823.04 279.907C1812.08 274.964 1803.37 268.301 1796.92 259.918C1790.69 251.536 1787.14 242.078 1786.28 231.546H1834.32C1835.18 235.2 1836.69 238.532 1838.84 241.541C1841.2 244.335 1844.32 246.592 1848.19 248.311C1852.27 249.816 1856.79 250.568 1861.73 250.568C1867.1 250.568 1871.4 249.924 1874.63 248.634C1878.07 247.129 1880.65 245.195 1882.37 242.831C1884.09 240.466 1884.95 237.995 1884.95 235.415C1884.95 231.332 1883.66 228.215 1881.08 226.066C1878.71 223.916 1875.17 222.197 1870.44 220.907C1865.71 219.403 1860.01 218.005 1853.35 216.716C1845.61 214.996 1837.87 213.062 1830.13 210.913C1822.61 208.548 1815.84 205.647 1809.82 202.208C1804.02 198.769 1799.29 194.362 1795.63 188.989C1792.19 183.401 1790.47 176.63 1790.47 168.678C1790.47 159.005 1793.16 150.301 1798.53 142.563C1803.91 134.61 1811.65 128.377 1821.75 123.863C1831.85 119.135 1844.1 116.77 1858.51 116.77C1878.93 116.77 1894.94 121.284 1906.55 130.311C1918.16 139.339 1925.03 151.483 1927.18 166.743H1882.04C1880.75 162.444 1878.07 159.22 1873.98 157.071C1869.9 154.707 1864.74 153.525 1858.51 153.525C1851.41 153.525 1846.04 154.707 1842.38 157.071C1838.73 159.435 1836.9 162.552 1836.9 166.421C1836.9 169 1838.09 171.364 1840.45 173.514C1843.03 175.448 1846.68 177.168 1851.41 178.672C1856.14 180.177 1861.95 181.681 1868.82 183.186C1881.94 185.98 1893.22 188.989 1902.68 192.213C1912.35 195.437 1919.88 200.166 1925.25 206.399C1930.62 212.417 1933.2 221.23 1932.99 232.836C1933.2 243.368 1930.41 252.718 1924.6 260.885C1919.02 269.053 1910.95 275.501 1900.42 280.23C1889.89 284.743 1877.31 287 1862.7 287Z" fill="black"/>
</svg>
